<svg id="Layer_1" data-name="Layer 1" xmlns="http://www.w3.org/2000/svg" viewBox="0 0 476 348"><defs><style>.cls-1,.cls-2{fill:#fff;}.cls-1,.cls-2,.cls-8{stroke:#231f20;stroke-miterlimit:10;}.cls-1,.cls-8{stroke-width:3px;}.cls-2{stroke-width:2px;}.cls-3{font-size:19.11px;}.cls-3,.cls-4,.cls-5,.cls-6,.cls-7,.cls-9{fill:#231f20;font-family:MyriadPro-Regular, Myriad Pro;}.cls-4{font-size:16.86px;}.cls-5{font-size:17.61px;}.cls-6{font-size:18.36px;}.cls-7{font-size:21.36px;}.cls-8{fill:none;}.cls-9{font-size:12px;}.cls-10{letter-spacing:0.01em;}.cls-11{letter-spacing:-0.01em;}</style></defs><rect class="cls-1" x="1.5" y="1.5" width="473" height="345"/><rect class="cls-2" x="40.25" y="291.5" width="19" height="26" rx="5.63"/><rect class="cls-2" x="79.75" y="291.5" width="19" height="26" rx="5.63"/><rect class="cls-2" x="120.75" y="291.5" width="19" height="26" rx="5.63"/><rect class="cls-2" x="162.75" y="291.5" width="19" height="26" rx="5.62"/><rect class="cls-2" x="199.75" y="291.5" width="19" height="26" rx="5.62"/><rect class="cls-2" x="283" y="289.5" width="19" height="26" rx="5.62"/><rect class="cls-2" x="324.5" y="289.5" width="19" height="26" rx="5.62"/><rect class="cls-2" x="369.5" y="289.5" width="19" height="26" rx="5.62"/><rect class="cls-2" x="409.5" y="289.5" width="19" height="26" rx="5.63"/><rect class="cls-2" x="40" y="239.5" width="19" height="26" rx="5.63"/><rect class="cls-2" x="79.5" y="239.5" width="19" height="26" rx="5.63"/><rect class="cls-2" x="120.5" y="239.5" width="19" height="26" rx="5.63"/><rect class="cls-2" x="162.5" y="239.5" width="19" height="26" rx="5.62"/><rect class="cls-2" x="199.5" y="239.5" width="19" height="26" rx="5.62"/><rect class="cls-2" x="282.75" y="237.5" width="19" height="26" rx="5.62"/><rect class="cls-2" x="324.25" y="237.5" width="19" height="26" rx="5.62"/><rect class="cls-2" x="369.25" y="237.5" width="19" height="26" rx="5.62"/><rect class="cls-2" x="409.25" y="237.5" width="19" height="26" rx="5.63"/><rect class="cls-2" x="41.75" y="187.5" width="19" height="26" rx="5.63"/><rect class="cls-2" x="81.25" y="187.5" width="19" height="26" rx="5.63"/><rect class="cls-2" x="122.25" y="187.5" width="19" height="26" rx="5.63"/><rect class="cls-2" x="164.25" y="187.5" width="19" height="26" rx="5.62"/><rect class="cls-2" x="201.25" y="187.5" width="19" height="26" rx="5.62"/><rect class="cls-2" x="284.5" y="185.5" width="19" height="26" rx="5.62"/><rect class="cls-2" x="326" y="185.5" width="19" height="26" rx="5.62"/><rect class="cls-2" x="371" y="185.5" width="19" height="26" rx="5.62"/><rect class="cls-2" x="411" y="185.5" width="19" height="26" rx="5.63"/><rect class="cls-2" x="43" y="138.5" width="19" height="26" rx="5.63"/><rect class="cls-2" x="82.5" y="138.5" width="19" height="26" rx="5.63"/><rect class="cls-2" x="123.5" y="138.5" width="19" height="26" rx="5.63"/><rect class="cls-2" x="165.5" y="138.5" width="19" height="26" rx="5.62"/><rect class="cls-2" x="202.5" y="138.5" width="19" height="26" rx="5.62"/><rect class="cls-2" x="285.75" y="136.5" width="19" height="26" rx="5.62"/><rect class="cls-2" x="327.25" y="136.5" width="19" height="26" rx="5.62"/><rect class="cls-2" x="372.25" y="136.5" width="19" height="26" rx="5.62"/><rect class="cls-2" x="412.25" y="136.5" width="19" height="26" rx="5.63"/><rect class="cls-2" x="42.5" y="84.5" width="19" height="26" rx="5.63"/><rect class="cls-2" x="82" y="84.5" width="19" height="26" rx="5.63"/><rect class="cls-2" x="123" y="84.5" width="19" height="26" rx="5.63"/><rect class="cls-2" x="165" y="84.5" width="19" height="26" rx="5.62"/><rect class="cls-2" x="202" y="84.5" width="19" height="26" rx="5.62"/><rect class="cls-2" x="285.25" y="82.5" width="19" height="26" rx="5.62"/><rect class="cls-2" x="326.75" y="82.5" width="19" height="26" rx="5.62"/><rect class="cls-2" x="371.75" y="82.5" width="19" height="26" rx="5.62"/><rect class="cls-2" x="411.75" y="82.5" width="19" height="26" rx="5.63"/><text class="cls-3" transform="translate(14.7 104.15) scale(1.19 1)">A</text><text class="cls-3" transform="translate(440.96 100.85) scale(1.19 1)">A</text><text class="cls-4" transform="translate(19.38 158.12) scale(1.08 1)">B</text><text class="cls-5" transform="translate(18.97 206.38) scale(0.87 1)">C</text><text class="cls-6" transform="translate(19.33 258.92) scale(0.82 1)">D</text><text class="cls-7" transform="translate(17.35 310.79) scale(1.11 1)">E</text><text class="cls-7" transform="translate(444.6 309.25) scale(1.11 1)">E</text><text class="cls-6" transform="translate(445.21 258.21) scale(0.82 1)">D</text><text class="cls-5" transform="translate(442.44 205.1) scale(0.87 1)">C</text><text class="cls-4" transform="translate(444.18 156.95) scale(1.08 1)">B</text><path class="cls-8" d="M92.58,273.82c0-15.71,76.92-28.43,172-28.43" transform="translate(-28.5 -225.5)"/><path class="cls-8" d="M411.76,273.82c0-15.71-65.84-28.43-147.21-28.43" transform="translate(-28.5 -225.5)"/><text class="cls-9" transform="translate(209 49.36)"><tspan class="cls-10">S</tspan><tspan x="5.99" y="0">c</tspan><tspan class="cls-11" x="11.36" y="0">r</tspan><tspan x="15.17" y="0">een</tspan></text></svg>